<mxfile host="Electron" modified="2024-03-22T11:05:07.256Z" agent="Mozilla/5.0 (Windows NT 10.0; Win64; x64) AppleWebKit/537.36 (KHTML, like Gecko) draw.io/24.0.4 Chrome/120.0.6099.109 Electron/28.1.0 Safari/537.36" etag="0fqYZ7Dx076Usy4K6cyj" version="24.0.4" type="device">
  <diagram name="Page-1" id="7-qsZT-j9VxzIa0jK8Uy">
    <mxGraphModel dx="1292" dy="1162" grid="1" gridSize="10" guides="1" tooltips="1" connect="1" arrows="1" fold="1" page="1" pageScale="1" pageWidth="827" pageHeight="1169" math="0" shadow="0">
      <root>
        <mxCell id="0" />
        <mxCell id="1" parent="0" />
        <mxCell id="bH40_Dh_9YDPmBIDTG2r-1" value="1&lt;div&gt;CREATE JOB DESCRIPTION&lt;/div&gt;" style="ellipse;whiteSpace=wrap;html=1;labelBackgroundColor=none;fillColor=#F2CC8F;strokeColor=#E07A5F;fontColor=#393C56;" vertex="1" parent="1">
          <mxGeometry x="380" y="50" width="120" height="80" as="geometry" />
        </mxCell>
        <mxCell id="bH40_Dh_9YDPmBIDTG2r-6" style="rounded=0;orthogonalLoop=1;jettySize=auto;html=1;entryX=1.025;entryY=0.375;entryDx=0;entryDy=0;entryPerimeter=0;labelBackgroundColor=none;strokeColor=#E07A5F;fontColor=default;" edge="1" parent="1" source="bH40_Dh_9YDPmBIDTG2r-2" target="bH40_Dh_9YDPmBIDTG2r-4">
          <mxGeometry relative="1" as="geometry" />
        </mxCell>
        <mxCell id="bH40_Dh_9YDPmBIDTG2r-2" value="MEDS Admin" style="shape=umlActor;verticalLabelPosition=bottom;verticalAlign=top;html=1;outlineConnect=0;labelBackgroundColor=none;fillColor=#F2CC8F;strokeColor=#E07A5F;fontColor=#393C56;" vertex="1" parent="1">
          <mxGeometry x="630" y="200" width="30" height="60" as="geometry" />
        </mxCell>
        <mxCell id="bH40_Dh_9YDPmBIDTG2r-3" style="rounded=0;orthogonalLoop=1;jettySize=auto;html=1;entryX=1;entryY=0.5;entryDx=0;entryDy=0;labelBackgroundColor=none;strokeColor=#E07A5F;fontColor=default;" edge="1" parent="1" source="bH40_Dh_9YDPmBIDTG2r-2" target="bH40_Dh_9YDPmBIDTG2r-1">
          <mxGeometry relative="1" as="geometry" />
        </mxCell>
        <mxCell id="bH40_Dh_9YDPmBIDTG2r-4" value="2&lt;div&gt;ASSIGN JOB&lt;/div&gt;" style="ellipse;whiteSpace=wrap;html=1;labelBackgroundColor=none;fillColor=#F2CC8F;strokeColor=#E07A5F;fontColor=#393C56;" vertex="1" parent="1">
          <mxGeometry x="200" y="240" width="120" height="80" as="geometry" />
        </mxCell>
        <mxCell id="bH40_Dh_9YDPmBIDTG2r-7" value="3&lt;div&gt;FILE CONVERSION&lt;/div&gt;" style="ellipse;whiteSpace=wrap;html=1;labelBackgroundColor=none;fillColor=#dae8fc;strokeColor=#6c8ebf;" vertex="1" parent="1">
          <mxGeometry x="585" y="450" width="120" height="80" as="geometry" />
        </mxCell>
        <mxCell id="bH40_Dh_9YDPmBIDTG2r-9" style="rounded=0;orthogonalLoop=1;jettySize=auto;html=1;entryX=0.5;entryY=1;entryDx=0;entryDy=0;labelBackgroundColor=none;strokeColor=#E07A5F;fontColor=default;" edge="1" parent="1" source="bH40_Dh_9YDPmBIDTG2r-8" target="bH40_Dh_9YDPmBIDTG2r-7">
          <mxGeometry relative="1" as="geometry" />
        </mxCell>
        <mxCell id="bH40_Dh_9YDPmBIDTG2r-11" style="rounded=0;orthogonalLoop=1;jettySize=auto;html=1;entryX=1;entryY=0.5;entryDx=0;entryDy=0;labelBackgroundColor=none;strokeColor=#E07A5F;fontColor=default;" edge="1" parent="1" source="bH40_Dh_9YDPmBIDTG2r-8" target="bH40_Dh_9YDPmBIDTG2r-10">
          <mxGeometry relative="1" as="geometry" />
        </mxCell>
        <mxCell id="bH40_Dh_9YDPmBIDTG2r-13" style="rounded=0;orthogonalLoop=1;jettySize=auto;html=1;entryX=1;entryY=0.5;entryDx=0;entryDy=0;labelBackgroundColor=none;strokeColor=#E07A5F;fontColor=default;" edge="1" parent="1" source="bH40_Dh_9YDPmBIDTG2r-8" target="bH40_Dh_9YDPmBIDTG2r-12">
          <mxGeometry relative="1" as="geometry" />
        </mxCell>
        <mxCell id="bH40_Dh_9YDPmBIDTG2r-15" style="rounded=0;orthogonalLoop=1;jettySize=auto;html=1;entryX=0.5;entryY=0;entryDx=0;entryDy=0;labelBackgroundColor=none;strokeColor=#E07A5F;fontColor=default;" edge="1" parent="1" source="bH40_Dh_9YDPmBIDTG2r-8" target="bH40_Dh_9YDPmBIDTG2r-14">
          <mxGeometry relative="1" as="geometry" />
        </mxCell>
        <mxCell id="bH40_Dh_9YDPmBIDTG2r-8" value="Processor" style="shape=umlActor;verticalLabelPosition=bottom;verticalAlign=top;html=1;outlineConnect=0;labelBackgroundColor=none;fillColor=#F2CC8F;strokeColor=#E07A5F;fontColor=#393C56;" vertex="1" parent="1">
          <mxGeometry x="710" y="730" width="30" height="60" as="geometry" />
        </mxCell>
        <mxCell id="bH40_Dh_9YDPmBIDTG2r-10" value="4&lt;div&gt;JOB PREPARATION&lt;/div&gt;" style="ellipse;whiteSpace=wrap;html=1;labelBackgroundColor=none;fillColor=#F2CC8F;strokeColor=#E07A5F;fontColor=#393C56;" vertex="1" parent="1">
          <mxGeometry x="260" y="530" width="120" height="80" as="geometry" />
        </mxCell>
        <mxCell id="bH40_Dh_9YDPmBIDTG2r-12" value="5&lt;div&gt;JOB FILE UPLOADS&lt;/div&gt;" style="ellipse;whiteSpace=wrap;html=1;labelBackgroundColor=none;fillColor=#F2CC8F;strokeColor=#E07A5F;fontColor=#393C56;" vertex="1" parent="1">
          <mxGeometry x="354" y="730" width="120" height="80" as="geometry" />
        </mxCell>
        <mxCell id="bH40_Dh_9YDPmBIDTG2r-14" value="6&lt;div&gt;FILE IMPORT&lt;/div&gt;" style="ellipse;whiteSpace=wrap;html=1;labelBackgroundColor=none;fillColor=#F2CC8F;strokeColor=#E07A5F;fontColor=#393C56;" vertex="1" parent="1">
          <mxGeometry x="340" y="960" width="120" height="80" as="geometry" />
        </mxCell>
      </root>
    </mxGraphModel>
  </diagram>
</mxfile>
